<svg xmlns="http://www.w3.org/2000/svg" viewBox="0 0 820 940" fill="currentColor"><rect x="0" y="600" width="100" height="100" rx="16"/><rect x="0" y="720" width="100" height="100" rx="16"/><rect x="240" y="840" width="100" height="100" rx="16"/><rect x="240" y="720" width="100" height="100" rx="16"/><rect x="120" y="840" width="100" height="100" rx="16"/><rect x="120" y="600" width="100" height="100" rx="16"/><rect x="240" y="600" width="100" height="100" rx="16"/><rect x="0" y="480" width="100" height="100" rx="16"/><rect x="0" y="360" width="100" height="100" rx="16"/><rect x="480" y="840" width="100" height="100" rx="16"/><rect x="480" y="720" width="100" height="100" rx="16"/><rect x="120" y="360" width="100" height="100" rx="16"/><rect x="120" y="240" width="100" height="100" rx="16"/><rect x="240" y="360" width="100" height="100" rx="16"/><rect x="600" y="720" width="100" height="100" rx="16"/><rect x="480" y="600" width="100" height="100" rx="16"/><rect x="360" y="360" width="100" height="100" rx="16"/><rect x="240" y="240" width="100" height="100" rx="16"/><rect x="600" y="600" width="100" height="100" rx="16"/><rect x="720" y="600" width="100" height="100" rx="16"/><rect x="720" y="480" width="100" height="100" rx="16"/><rect x="240" y="120" width="100" height="100" rx="16"/><rect x="600" y="380" width="100" height="100" rx="16"/><rect x="720" y="240" width="100" height="100" rx="16"/><rect x="720" y="0" width="100" height="100" rx="16"/><rect x="480" y="240" width="100" height="100" rx="16"/><rect x="480" y="0" width="100" height="100" rx="16"/><rect x="120" y="480" width="100" height="100" rx="16"/><rect x="240" y="480" width="100" height="100" rx="16"/><rect x="360" y="840" width="100" height="100" rx="16"/><rect x="360" y="720" width="100" height="100" rx="16"/><rect x="360" y="600" width="100" height="100" rx="16"/><rect x="360" y="480" width="100" height="100" rx="16"/><rect x="120" y="720" width="100" height="100" rx="16"/></svg>
