<svg xmlns="http://www.w3.org/2000/svg" width="1em" height="1em" viewBox="0 0 24 24"><g fill="none" stroke="currentColor" stroke-width="1.5"><path d="M6.6 11.4c0-2.263 0-3.394.703-4.097C8.006 6.6 9.137 6.6 11.4 6.6h4.8c2.263 0 3.394 0 4.097.703c.703.703.703 1.834.703 4.097v4.8c0 2.263 0 3.394-.703 4.097c-.703.703-1.834.703-4.097.703h-4.8c-2.263 0-3.394 0-4.097-.703C6.6 19.594 6.6 18.463 6.6 16.2z"/><path d="M17.396 6.6c-.005-1.774-.05-2.707-.657-3.314C16.036 2.583 14.905 2.583 12.642 2.583h-3.6c-2.263 0-3.394 0-4.097.703c-.703.703-.703 1.834-.703 4.097v3.6c0 2.263 0 3.394.703 4.097c.607.607 1.54.652 3.314.657"/></g></svg>
