<svg width="1024" height="1024" viewBox="0 0 1024 1024" fill="none" xmlns="http://www.w3.org/2000/svg">
<rect x="100" y="100" width="824" height="824" rx="185.4" fill="#000000"/>
<g transform="translate(266.3 230.3) scale(0.599)">
<rect y="600" width="100" height="100" rx="16" fill="white"/>
<rect y="720" width="100" height="100" rx="16" fill="white"/>
<rect x="240" y="840" width="100" height="100" rx="16" fill="white"/>
<rect x="240" y="720" width="100" height="100" rx="16" fill="white"/>
<rect x="120" y="840" width="100" height="100" rx="16" fill="white"/>
<rect x="120" y="600" width="100" height="100" rx="16" fill="white"/>
<rect x="240" y="600" width="100" height="100" rx="16" fill="white"/>
<rect y="480" width="100" height="100" rx="16" fill="white"/>
<rect y="360" width="100" height="100" rx="16" fill="white"/>
<rect x="480" y="840" width="100" height="100" rx="16" fill="white"/>
<rect x="480" y="720" width="100" height="100" rx="16" fill="white"/>
<rect x="120" y="360" width="100" height="100" rx="16" fill="white"/>
<rect x="120" y="240" width="100" height="100" rx="16" fill="white"/>
<rect x="240" y="360" width="100" height="100" rx="16" fill="white"/>
<rect x="600" y="720" width="100" height="100" rx="16" fill="white"/>
<rect x="480" y="600" width="100" height="100" rx="16" fill="white"/>
<rect x="360" y="360" width="100" height="100" rx="16" fill="white"/>
<rect x="240" y="240" width="100" height="100" rx="16" fill="white"/>
<rect x="600" y="600" width="100" height="100" rx="16" fill="white"/>
<rect x="720" y="600" width="100" height="100" rx="16" fill="white"/>
<rect x="720" y="480" width="100" height="100" rx="16" fill="white"/>
<rect x="240" y="120" width="100" height="100" rx="16" fill="white"/>
<rect x="600" y="380" width="100" height="100" rx="16" fill="white"/>
<rect x="720" y="240" width="100" height="100" rx="16" fill="white"/>
<rect x="720" width="100" height="100" rx="16" fill="white"/>
<rect x="480" y="240" width="100" height="100" rx="16" fill="white"/>
<rect x="480" width="100" height="100" rx="16" fill="white"/>
<rect x="120" y="480" width="100" height="100" rx="16" fill="white"/>
<rect x="240" y="480" width="100" height="100" rx="16" fill="white"/>
<rect x="360" y="840" width="100" height="100" rx="16" fill="white"/>
<rect x="360" y="720" width="100" height="100" rx="16" fill="white"/>
<rect x="360" y="600" width="100" height="100" rx="16" fill="white"/>
<rect x="360" y="480" width="100" height="100" rx="16" fill="white"/>
<rect x="120" y="720" width="100" height="100" rx="16" fill="white"/>
</g>
</svg>
